<?xml version="1.0" encoding="UTF-8"?>
<svg width="400" height="82.535" viewBox="0, 0, 400,82.5354012137559" xmlns="http://www.w3.org/2000/svg">
<path d="m28.653 0.539c-0.185 0.297-0.518 0.54-0.739 0.54-0.415 0-0.453 0.112-0.506 1.483-0.021 0.557-0.216 0.891-0.625 1.07-0.447 0.196-0.614 0.531-0.675 1.349-0.06 0.819-0.227 1.152-0.676 1.349-0.513 0.226-0.606 0.505-0.674 2.023-0.068 1.529-0.158 1.797-0.685 2.028-0.537 0.235-0.607 0.462-0.607 1.961 0 1.546-0.059 1.722-0.674 2.002-0.617 0.281-0.675 0.455-0.675 2.023 0 1.559-0.06 1.744-0.66 2.017-0.52 0.237-0.678 0.537-0.742 1.41-0.066 0.908-0.189 1.125-0.677 1.194-0.542 0.077-0.602 0.258-0.674 2.023-0.072 1.777-0.129 1.946-0.686 2.025-0.562 0.08-0.607 0.222-0.607 1.95 0 1.755-0.038 1.874-0.662 2.03-0.61 0.153-0.669 0.31-0.742 1.961-0.068 1.552-0.159 1.83-0.675 2.056-0.514 0.225-0.607 0.504-0.674 2.023-0.068 1.517-0.161 1.797-0.673 2.022-0.447 0.196-0.614 0.531-0.674 1.349-0.065 0.886-0.19 1.103-0.676 1.172-0.542 0.077-0.602 0.258-0.674 2.023s-0.132 1.946-0.674 2.023-0.603 0.258-0.675 2.023c-0.073 1.793-0.125 1.945-0.702 2.027-0.584 0.082-0.619 0.193-0.549 1.753 0.084 1.865-0.095 2.339-0.884 2.339-0.494 0-0.534 0.152-0.461 1.766 0.08 1.792-0.146 2.265-1.086 2.276-0.272 3e-3 -0.322 0.244-0.195 0.921 0.184 0.982-0.31 1.78-1.103 1.78-0.336 0-0.395 0.311-0.318 1.68 0.091 1.618 0.067 1.694-0.671 2.049-0.735 0.355-0.762 0.434-0.674 2.029 0.083 1.506 0.035 1.684-0.516 1.926-0.333 0.146-0.619 0.45-0.633 0.674-0.015 0.224-0.045 0.711-0.068 1.082-0.025 0.412-0.273 0.777-0.636 0.936-0.514 0.226-0.607 0.505-0.675 2.023-0.068 1.529-0.158 1.797-0.685 2.028-0.537 0.235-0.607 0.462-0.607 1.964 0 1.26-0.104 1.737-0.404 1.853-0.595 0.228-0.595 4.952 0 4.952 0.222 0 0.404 0.182 0.404 0.405 0 0.354 1.648 0.404 13.217 0.404 11.492 0 13.216-0.052 13.216-0.399 0-0.22 0.298-0.474 0.663-0.566 0.617-0.155 0.669-0.301 0.742-2.095 0.071-1.753 0.133-1.937 0.671-2.014 0.5-0.071 0.606-0.282 0.675-1.348 0.068-1.067 0.174-1.278 0.674-1.349s0.606-0.282 0.674-1.349c0.07-1.076 0.172-1.277 0.689-1.35 0.524-0.075 0.607-0.248 0.607-1.276 0-1.038 0.084-1.211 0.66-1.356 0.548-0.137 0.673-0.355 0.741-1.286 0.062-0.852 0.225-1.183 0.678-1.382 0.514-0.226 0.607-0.505 0.674-2.023 0.068-1.533 0.158-1.796 0.69-2.03 0.475-0.208 0.597-0.461 0.552-1.138-0.041-0.608 0.141-1.082 0.603-1.575 0.534-0.568 0.653-0.96 0.62-2.031-0.031-1.009 0.055-1.326 0.359-1.326 0.398 0 0.388 0.234-0.096 2.338-0.097 0.421 0.062 0.714 0.564 1.043 0.544 0.356 0.698 0.679 0.698 1.462 0 0.809 0.13 1.064 0.674 1.312 0.616 0.28 0.674 0.454 0.674 2.022 0 1.569 0.058 1.743 0.675 2.023 0.615 0.281 0.674 0.456 0.674 2.003 0 1.499 0.07 1.725 0.607 1.961 0.46 0.202 0.626 0.528 0.687 1.354 0.06 0.818 0.227 1.153 0.674 1.349 0.512 0.224 0.605 0.505 0.673 2.022 0.067 1.518 0.16 1.797 0.674 2.023 0.454 0.199 0.615 0.53 0.678 1.391 0.067 0.926 0.188 1.144 0.674 1.213 0.362 0.052 0.624 0.306 0.674 0.655 0.045 0.313 0.378 0.705 0.742 0.87 0.363 0.166 0.66 0.425 0.66 0.577 0 0.183 4.185 0.275 12.542 0.275 10.897 0 12.542-0.052 12.542-0.399 0-0.22 0.298-0.474 0.661-0.565 0.566-0.142 0.672-0.346 0.742-1.421 0.068-1.06 0.174-1.269 0.676-1.341 0.542-0.077 0.603-0.257 0.674-2.022 0.072-1.763 0.133-1.946 0.672-2.023 0.5-0.071 0.606-0.282 0.674-1.349 0.07-1.076 0.172-1.277 0.689-1.35 0.524-0.075 0.607-0.248 0.607-1.276 0-1.039 0.084-1.211 0.662-1.356 0.61-0.153 0.669-0.31 0.742-1.961 0.069-1.563 0.158-1.829 0.686-2.061 0.476-0.208 0.607-0.487 0.607-1.287 0-0.85 0.117-1.067 0.694-1.286 0.632-0.24 0.69-0.389 0.651-1.679-0.062-2.069-0.059-2.079 0.708-2.371 0.582-0.221 0.681-0.396 0.565-1.002-0.182-0.949 0.221-1.684 0.923-1.684 0.502 0 0.549-0.147 0.497-1.55-0.08-2.18-0.072-2.209 0.71-2.506 0.569-0.216 0.672-0.391 0.54-0.916-0.224-0.892 0.058-1.496 0.839-1.793 0.542-0.206 0.631-0.381 0.503-0.99-0.181-0.86 3e-3 -1.205 0.889-1.672 0.589-0.311 0.627-0.453 0.472-1.774-0.166-1.413 0.188-2.285 0.929-2.285 0.138 0 0.251-0.354 0.251-0.787 0-1.132 0.256-1.64 0.825-1.64 0.428 0 0.51-0.259 0.578-1.821 0.069-1.577 0.159-1.855 0.674-2.081 0.447-0.196 0.614-0.531 0.675-1.349 0.06-0.819 0.227-1.152 0.676-1.349 0.513-0.226 0.606-0.505 0.674-2.023 0.067-1.517 0.161-1.798 0.672-2.022 0.447-0.196 0.615-0.531 0.675-1.349 0.061-0.825 0.226-1.152 0.687-1.354 0.475-0.209 0.607-0.487 0.607-1.287 0-0.834 0.126-1.078 0.691-1.336 0.619-0.282 0.687-0.458 0.651-1.68-0.022-0.75-0.029-1.517-0.017-1.703 0.019-0.269 8.28-0.324 40.819-0.269l40.796 0.068 0.266 0.607c0.208 0.474 0.487 0.607 1.281 0.607 1.04 0 1.108 0.088 1.031 1.348-0.029 0.469 0.148 0.757 0.578 0.944 0.949 0.413 1.025 1.945 0.108 2.175-0.629 0.158-0.684 0.302-0.758 1.965-0.068 1.552-0.159 1.829-0.675 2.056-0.513 0.225-0.606 0.504-0.674 2.023-0.068 1.516-0.161 1.797-0.673 2.022-0.446 0.196-0.614 0.531-0.674 1.348-0.06 0.818-0.228 1.153-0.674 1.349-0.447 0.196-0.614 0.531-0.675 1.349-0.065 0.893-0.188 1.103-0.687 1.174-0.563 0.08-0.606 0.222-0.606 1.962s-0.048 1.894-0.659 2.126c-0.534 0.203-0.674 0.468-0.741 1.409-0.071 0.975-0.183 1.174-0.704 1.248-0.58 0.082-0.617 0.2-0.566 1.779 0.062 1.912-0.091 2.313-0.883 2.313-0.473 0-0.535 0.129-0.421 0.877 0.168 1.105-0.196 1.821-0.926 1.821-0.495 0-0.547 0.116-0.413 0.942 0.164 1.007-0.297 1.755-1.083 1.755-0.352 0-0.399 0.264-0.279 1.582 0.158 1.744 0.084 1.962-0.828 2.442-0.49 0.259-0.591 0.483-0.472 1.052 0.171 0.813-8e-3 1.174-0.791 1.604-0.372 0.204-0.54 0.575-0.54 1.191 0 0.669-0.153 0.962-0.607 1.161-0.63 0.277-0.705 0.54-0.728 2.566-0.011 0.985-0.126 1.263-0.608 1.474-0.447 0.197-0.614 0.531-0.674 1.349-0.06 0.819-0.227 1.153-0.676 1.349-0.514 0.226-0.607 0.505-0.674 2.023-0.068 1.529-0.159 1.797-0.686 2.028-0.473 0.208-0.607 0.488-0.607 1.272 0 0.966-0.732 1.82-1.178 1.374-0.094-0.093-0.17 0.565-0.17 1.464 0 1.518 0.048 1.646 0.674 1.803 0.371 0.093 0.674 0.349 0.674 0.569 0 0.609 32.771 0.604 33.004-5e-3 0.086-0.223 0.338-0.405 0.562-0.405 0.223 0 0.594-0.364 0.824-0.809 0.245-0.473 0.634-0.809 0.936-0.809 0.427 0 0.533-0.226 0.6-1.281 0.071-1.1 0.17-1.294 0.699-1.369 0.53-0.075 0.608-0.23 0.558-1.092-0.072-1.213 0.163-1.653 0.882-1.653 0.492 0 0.534-0.153 0.465-1.685-0.084-1.893 0.093-2.36 0.896-2.36 0.484 0 0.532-0.117 0.381-0.918-0.185-0.987 0.311-1.78 1.113-1.78 0.352 0 0.399-0.264 0.28-1.581-0.159-1.745-0.085-1.962 0.827-2.443 0.491-0.259 0.592-0.483 0.473-1.052-0.181-0.861 0.058-1.297 0.791-1.44 0.472-0.093 0.54-0.321 0.54-1.821 0-1.435 0.088-1.764 0.539-2.016 0.297-0.165 0.596-0.337 0.665-0.382 0.07-0.044 0.13-0.53 0.135-1.079 7e-3 -0.765 0.148-1.058 0.605-1.259 0.514-0.226 0.607-0.505 0.674-2.023 0.068-1.517 0.161-1.798 0.673-2.022 0.447-0.196 0.614-0.531 0.674-1.349 0.061-0.819 0.228-1.152 0.676-1.349 0.514-0.226 0.607-0.505 0.675-2.023 0.067-1.517 0.161-1.798 0.672-2.022 0.447-0.196 0.614-0.531 0.675-1.349 0.065-0.886 0.19-1.103 0.675-1.172 0.542-0.078 0.602-0.258 0.674-2.023 0.072-1.763 0.133-1.946 0.672-2.023 0.5-0.071 0.606-0.282 0.674-1.349 0.07-1.076 0.172-1.277 0.689-1.35 0.562-0.08 0.607-0.222 0.607-1.95 0-1.753 0.039-1.874 0.66-2.03 0.548-0.138 0.674-0.355 0.741-1.287 0.064-0.872 0.221-1.18 0.708-1.39 0.565-0.243 0.618-0.418 0.541-1.771l-0.084-1.502 2.207-2.207 2.207-2.207h53.669c55.346 0 54.523-0.013 54.523 0.838 0 0.41 0.199 0.511 1.011 0.513 1.446 5e-3 2.842 1.432 2.597 2.657-0.132 0.659-0.076 0.847 0.25 0.847 0.782 0 1.242 0.749 1.079 1.755-0.134 0.825-0.083 0.942 0.412 0.942 0.725 0 1.094 0.714 0.929 1.799-0.112 0.737-0.042 0.866 0.505 0.944 0.548 0.077 0.645 0.26 0.715 1.354 0.069 1.066 0.175 1.277 0.675 1.348s0.605 0.282 0.674 1.349c0.069 1.066 0.174 1.277 0.674 1.348 0.5 0.072 0.606 0.283 0.675 1.349 0.068 1.066 0.174 1.278 0.674 1.349 0.484 0.069 0.608 0.287 0.674 1.193 0.064 0.873 0.222 1.174 0.742 1.411 0.541 0.246 0.66 0.496 0.66 1.385 0 0.799 0.11 1.085 0.417 1.085 0.23 0 0.623 0.357 0.873 0.794 0.251 0.437 0.67 0.851 0.932 0.919 0.351 0.092 0.476 0.398 0.476 1.165 0 0.82 0.128 1.096 0.606 1.306 0.461 0.202 0.627 0.529 0.687 1.354 0.061 0.818 0.228 1.153 0.675 1.349 0.454 0.199 0.613 0.53 0.677 1.407 0.045 0.63 0.211 1.146 0.369 1.146 0.565 0 2.38 2.152 2.38 2.823 0 0.389 0.224 0.785 0.539 0.953 1.631 0.873 0.697 0.945-11.193 0.866l-11.733-0.078v0.564c0 0.382-0.256 0.654-0.793 0.841-0.496 0.173-0.825 0.496-0.877 0.863-0.052 0.365-0.307 0.618-0.679 0.67-0.542 0.077-0.602 0.258-0.674 2.023-0.072 1.777-0.129 1.946-0.686 2.025-0.55 0.078-0.607 0.233-0.607 1.663 0 1.915-0.174 2.431-0.822 2.431-0.39 0-0.513 0.244-0.578 1.147-0.064 0.878-0.223 1.207-0.679 1.407-0.514 0.226-0.607 0.505-0.674 2.023-0.068 1.519-0.161 1.798-0.675 2.023-0.513 0.226-0.606 0.505-0.674 2.023-0.068 1.529-0.159 1.797-0.685 2.028-0.834 0.366-0.867 1.757-0.042 1.757 0.337 0 0.621 0.216 0.705 0.539 0.192 0.734 75.871 0.869 75.871 0.135 0-0.223 0.182-0.405 0.404-0.405 0.586 0 0.586-3.379 0-3.604-0.261-0.1-0.404-0.517-0.404-1.178 0-0.803-0.131-1.081-0.607-1.29-0.461-0.202-0.626-0.529-0.687-1.354-0.06-0.818-0.228-1.153-0.674-1.349-0.453-0.198-0.601-0.503-0.622-1.277-0.016-0.56-0.076-1.045-0.135-1.079s-0.35-0.199-0.647-0.365c-0.385-0.217-0.539-0.584-0.539-1.288 0-0.78-0.141-1.057-0.674-1.327-0.538-0.273-0.675-0.546-0.675-1.349 0-0.802-0.137-1.077-0.674-1.352-0.564-0.288-0.661-0.509-0.595-1.344 0.069-0.865-0.016-1.035-0.633-1.269-0.392-0.149-0.769-0.487-0.838-0.75-0.069-0.264-0.391-0.597-0.715-0.741-0.476-0.21-0.576-0.452-0.515-1.239 0.065-0.85-0.015-1.001-0.607-1.15-0.679-0.17-0.782-0.44-0.694-1.813 0.035-0.553-0.106-0.746-0.646-0.882-0.611-0.153-0.691-0.311-0.691-1.363 0-1.029-0.082-1.202-0.607-1.276-0.516-0.073-0.619-0.275-0.688-1.351-0.069-1.066-0.175-1.277-0.675-1.348s-0.605-0.282-0.674-1.349c-0.069-1.066-0.174-1.277-0.674-1.348-0.5-0.072-0.606-0.283-0.675-1.349-0.068-1.066-0.174-1.278-0.674-1.349-0.494-0.07-0.619-0.309-0.753-1.433-0.087-0.741-0.179-1.253-0.202-1.136-0.147 0.733-1.121-0.476-1.121-1.392 0-0.833-0.127-1.084-0.674-1.334-0.547-0.248-0.675-0.5-0.675-1.328 0-0.799-0.131-1.078-0.607-1.286-0.46-0.203-0.626-0.529-0.687-1.355-0.06-0.817-0.227-1.152-0.674-1.348s-0.614-0.531-0.674-1.349-0.228-1.152-0.674-1.348c-0.447-0.196-0.615-0.531-0.675-1.349s-0.227-1.153-0.674-1.349-0.614-0.53-0.674-1.348c-0.061-0.818-0.228-1.153-0.675-1.349-0.455-0.2-0.596-0.494-0.603-1.259-5e-3 -0.548-0.066-1.034-0.135-1.079-0.069-0.044-0.368-0.217-0.665-0.383-0.364-0.204-0.54-0.583-0.54-1.164 0-0.584-0.174-0.958-0.539-1.158-0.799-0.439-0.953-0.787-0.775-1.758 0.125-0.679 0.067-0.877-0.255-0.877-0.795 0-1.29-0.796-1.105-1.78 0.135-0.721 0.083-0.917-0.243-0.917-0.765 0-1.239-0.752-1.082-1.719 0.13-0.8 0.067-0.925-0.539-1.077-0.377-0.095-0.759-0.404-0.849-0.687-0.089-0.283-0.454-0.706-0.81-0.939-0.544-0.356-0.623-0.577-0.494-1.373 0.135-0.833 0.085-0.948-0.414-0.948-0.358 0-0.722-0.299-0.986-0.81-0.23-0.445-0.589-0.809-0.798-0.809s-0.455-0.236-0.547-0.525c-0.091-0.289-0.397-0.599-0.678-0.688-0.282-0.09-0.589-0.407-0.684-0.705s-0.452-0.669-0.793-0.825c-0.342-0.156-0.751-0.567-0.908-0.913-0.244-0.534-0.428-0.607-1.216-0.479-0.786 0.128-0.957 0.061-1.114-0.435-0.103-0.322-0.479-0.697-0.838-0.833-0.392-0.149-0.651-0.465-0.651-0.794 0-0.492-0.172-0.546-1.761-0.546-1.318 0-1.801-0.102-1.917-0.404-0.193-0.501-275.76-0.63-275.76-0.129 0 0.151-0.294 0.409-0.652 0.572s-0.713 0.534-0.789 0.823c-0.076 0.29-0.383 0.591-0.683 0.669-0.418 0.11-0.564 0.405-0.627 1.262-0.062 0.85-0.225 1.181-0.677 1.38-0.514 0.225-0.607 0.504-0.675 2.023-0.067 1.516-0.161 1.797-0.672 2.022-0.447 0.196-0.614 0.531-0.675 1.348-0.06 0.818-0.227 1.153-0.674 1.349s-0.614 0.531-0.674 1.349c-0.061 0.819-0.228 1.152-0.676 1.349-0.514 0.225-0.607 0.505-0.675 2.023-0.068 1.529-0.158 1.797-0.685 2.028-0.475 0.208-0.607 0.487-0.607 1.287 0 0.821-0.129 1.079-0.66 1.321-0.52 0.237-0.678 0.537-0.742 1.411-0.067 0.908-0.189 1.124-0.677 1.193-0.542 0.078-0.602 0.258-0.674 2.023-0.072 1.777-0.129 1.946-0.686 2.025-0.516 0.073-0.607 0.25-0.607 1.192 0 0.65-0.183 1.31-0.444 1.598-0.245 0.27-0.457 0.826-0.472 1.235s-0.149 0.683-0.297 0.609c-0.151-0.075-0.228-0.822-0.175-1.686 0.086-1.413 0.045-1.551-0.457-1.551-0.728 0-0.963-0.435-0.892-1.653 0.051-0.862-0.028-1.016-0.557-1.091-0.517-0.074-0.63-0.275-0.7-1.247-0.068-0.941-0.207-1.206-0.742-1.409-0.611-0.233-0.658-0.386-0.658-2.127 0-1.74-0.044-1.882-0.607-1.962-0.498-0.071-0.621-0.281-0.687-1.174-0.06-0.818-0.227-1.152-0.674-1.348-0.447-0.197-0.614-0.531-0.675-1.349-0.06-0.818-0.227-1.153-0.674-1.349s-0.614-0.53-0.674-1.348-0.228-1.153-0.674-1.349c-0.512-0.225-0.606-0.505-0.673-2.022-0.068-1.519-0.161-1.798-0.674-2.023-0.457-0.2-0.616-0.53-0.679-1.408-0.065-0.902-0.189-1.146-0.578-1.146-0.583 0-0.823-0.512-0.823-1.757 0-0.731-0.115-0.919-0.607-0.989-0.389-0.056-0.637-0.303-0.693-0.693-0.053-0.378-0.332-0.668-0.741-0.771-0.361-0.09-0.656-0.333-0.656-0.54 0-0.699-16.76-0.539-17.2 0.164m120.55 20.904c-0.507 0.427-1.134 0.674-1.71 0.674-0.683 0-0.974 0.151-1.174 0.607-0.147 0.334-0.54 0.727-0.874 0.873-0.333 0.147-0.618 0.45-0.633 0.675-0.015 0.224-0.045 0.711-0.067 1.082-0.025 0.411-0.273 0.776-0.636 0.935-0.446 0.196-0.614 0.531-0.674 1.349-0.06 0.819-0.227 1.152-0.676 1.349-0.514 0.226-0.607 0.505-0.674 2.023-0.068 1.529-0.159 1.797-0.685 2.028-0.476 0.208-0.607 0.487-0.607 1.287 0 0.827-0.128 1.079-0.675 1.328-1.015 0.462-1.018 3.042-4e-3 3.297 0.414 0.104 0.735 0.425 0.839 0.838l0.168 0.671h12.243c12.024 0 12.243-0.01 12.243-0.535 0-0.341 0.238-0.594 0.657-0.699 0.403-0.101 0.762-0.467 0.93-0.949 0.179-0.513 0.46-0.784 0.812-0.784 0.451 0 0.552-0.208 0.621-1.282 0.07-1.093 0.171-1.293 0.689-1.367 0.525-0.075 0.607-0.247 0.607-1.276 0-1.039 0.084-1.211 0.662-1.356 0.61-0.153 0.669-0.31 0.742-1.961 0.069-1.55 0.16-1.83 0.674-2.055 0.446-0.196 0.614-0.531 0.674-1.349 0.061-0.825 0.226-1.152 0.687-1.354 0.758-0.332 0.936-3.105 0.2-3.105-0.224 0-0.788-0.364-1.254-0.809l-0.847-0.809h-21.456l-0.802 0.674m85.141 0.135c-0.465 0.445-1.004 0.809-1.196 0.809-0.226 0-0.379 0.454-0.432 1.281-0.07 1.094-0.171 1.294-0.689 1.368-0.607 0.086-0.607 0.088-0.607 5.567v5.481l0.674 0.17c0.371 0.093 0.674 0.296 0.674 0.45 0 0.334 3.744 4.024 4.082 4.024 0.129 0 0.234 0.237 0.234 0.527 0 0.463 0.221 0.537 1.821 0.607 1.579 0.069 1.855 0.159 2.082 0.676 0.225 0.514 0.504 0.607 2.023 0.674 1.517 0.068 1.797 0.161 2.022 0.673 0.196 0.447 0.531 0.614 1.349 0.674 0.817 0.06 1.152 0.228 1.348 0.674 0.196 0.447 0.531 0.615 1.349 0.675s1.152 0.227 1.348 0.674 0.531 0.614 1.349 0.674c0.819 0.061 1.152 0.228 1.349 0.676 0.226 0.514 0.505 0.607 2.023 0.675 1.529 0.068 1.797 0.158 2.028 0.685 0.209 0.476 0.487 0.607 1.287 0.607 0.827 0 1.079 0.128 1.328 0.674 0.25 0.55 0.499 0.674 1.349 0.674 0.867 0 1.086 0.115 1.302 0.683 0.214 0.562 0.418 0.673 1.15 0.623 1.102-0.074 1.544 0.182 1.544 0.892 0 0.488 0.115 0.528 1.074 0.366 0.969-0.164 1.105-0.115 1.382 0.493 0.169 0.37 0.534 0.733 0.811 0.806 0.276 0.072 0.622 0.443 0.767 0.825 0.225 0.594 0.409 0.684 1.284 0.633 0.925-0.055 1.021 2e-3 1.021 0.613v0.675l-29.169 0.068-29.169 0.069-0.167 0.669c-0.104 0.412-0.426 0.734-0.839 0.837-0.585 0.147-0.67 0.317-0.67 1.343 0 1.044-0.957 2.36-1.121 1.541-0.023-0.116-0.114 0.395-0.202 1.137-0.134 1.124-0.259 1.363-0.753 1.433-0.5 0.071-0.606 0.282-0.674 1.348-0.069 1.068-0.174 1.278-0.677 1.349-0.536 0.077-0.603 0.263-0.674 1.888-0.069 1.56-0.16 1.839-0.674 2.065-0.446 0.196-0.614 0.53-0.674 1.348-0.061 0.826-0.226 1.152-0.687 1.354-0.537 0.236-0.607 0.463-0.607 1.962 0 1.546-0.059 1.722-0.674 2.002-0.594 0.271-0.674 0.475-0.674 1.718 0 1.28 0.062 1.427 0.674 1.58 0.371 0.093 0.674 0.349 0.674 0.569 0 0.349 2.622 0.399 20.904 0.399 17.687 0 20.903-0.057 20.903-0.375 0-0.954 10.262-1.109 10.852-0.164 0.386 0.618 33.653 0.878 33.653 0.263 0-0.152 0.303-0.392 0.674-0.533s0.674-0.384 0.674-0.54c0-0.338 3.439-3.775 3.776-3.775 0.129 0 0.313-0.25 0.41-0.555s0.483-0.672 0.858-0.814c0.554-0.211 0.656-0.394 0.544-0.979-0.186-0.975 0.025-1.422 0.816-1.723 0.532-0.202 0.633-0.383 0.503-0.902-0.226-0.897 0.059-1.496 0.854-1.798 0.632-0.241 0.665-0.348 0.527-1.689-0.164-1.584-0.075-1.829 0.828-2.305 0.443-0.233 0.573-0.476 0.454-0.85-0.243-0.765 0.104-1.602 0.664-1.602 0.506 0 1.022-1.89 0.671-2.459-0.317-0.512 0.146-1.587 0.683-1.587 0.418 0 0.535-0.223 0.602-1.146 0.063-0.878 0.222-1.207 0.679-1.408 0.513-0.225 0.606-0.504 0.674-2.023 0.068-1.528 0.159-1.796 0.685-2.027 0.7-0.308 0.986-8.5 0.296-8.5-0.171 0-1.021-0.728-1.889-1.619-0.869-0.89-1.7-1.618-1.847-1.618-0.148 0-0.268-0.243-0.268-0.539 0-0.435-0.18-0.54-0.922-0.54-1.272 0-1.776-0.238-1.776-0.838 0-0.401-0.197-0.51-0.922-0.51-1.263 0-1.775-0.238-1.775-0.823 0-0.39-0.244-0.513-1.146-0.578-0.878-0.063-1.208-0.222-1.408-0.679-0.226-0.513-0.505-0.606-2.023-0.674-1.517-0.068-1.798-0.161-2.022-0.673-0.196-0.446-0.531-0.614-1.349-0.674-0.825-0.061-1.152-0.226-1.354-0.687-0.209-0.475-0.487-0.607-1.287-0.607-0.827 0-1.079-0.128-1.328-0.674-0.281-0.617-0.454-0.674-2.023-0.674-1.581 0-1.74-0.055-2.032-0.695-0.275-0.604-0.433-0.673-1.208-0.527-0.772 0.145-0.934 0.075-1.202-0.514-0.171-0.375-0.542-0.755-0.825-0.845-0.282-0.089-0.63-0.47-0.773-0.845-0.211-0.554-0.394-0.656-0.979-0.544-0.964 0.185-1.422-0.024-1.709-0.78-0.2-0.526-0.41-0.621-1.261-0.571l-1.02 0.061 0.097-2.495c0.083-2.133 0.036-2.495-0.328-2.495-0.234 0-0.84-0.364-1.347-0.809l-0.921-0.809h-34.863l-0.847 0.809m70.668 0c-0.466 0.445-1.011 0.809-1.211 0.809-0.272 0-0.365 0.481-0.365 1.883 0 1.775-0.038 1.892-0.663 2.049-0.609 0.153-0.669 0.31-0.741 1.961-0.069 1.562-0.158 1.829-0.686 2.06-0.986 0.433-0.935 5.711 0.057 5.959 0.366 0.092 0.746 0.428 0.846 0.747 0.238 0.764 0.641 0.997 1.397 0.807 0.516-0.129 1.113 0.338 3.569 2.795l2.95 2.949-0.164 1.387c-0.155 1.31-0.124 1.405 0.553 1.714 1.186 0.54 1.188 2.392 2e-3 2.392-0.535 0-0.742 1.165-0.557 3.14 0.152 1.636 0.126 1.751-0.476 2.025-0.728 0.332-1.012 1.332-0.781 2.754 0.137 0.849 0.072 1-0.552 1.285-0.634 0.289-0.708 0.472-0.708 1.741 0 1.765-0.187 2.271-0.838 2.271-0.444 0-0.511 0.21-0.511 1.596 0 1.934-0.173 2.45-0.822 2.45-0.39 0-0.513 0.244-0.578 1.146-0.064 0.878-0.223 1.208-0.679 1.408-0.514 0.226-0.607 0.505-0.674 2.023-0.068 1.517-0.161 1.798-0.673 2.022-0.447 0.196-0.614 0.531-0.674 1.349-0.062 0.833-0.225 1.151-0.7 1.357-0.43 0.188-0.607 0.476-0.578 0.944 0.072 1.183-2e-3 1.357-0.691 1.619-0.37 0.141-0.674 0.444-0.674 0.673 0 0.23-0.303 0.556-0.674 0.725-0.896 0.408-0.981 1.839-0.11 1.839 0.338 0 0.622 0.216 0.706 0.539 0.191 0.73 18.238 0.861 18.517 0.135 0.085-0.223 0.344-0.405 0.575-0.405s0.536-0.305 0.678-0.679c0.142-0.373 0.577-0.8 0.968-0.949 0.582-0.221 0.685-0.399 0.572-0.989-0.187-0.974 0.025-1.422 0.812-1.722 0.599-0.227 0.657-0.387 0.604-1.665-0.083-2.016-0.066-2.072 0.711-2.368 0.569-0.216 0.672-0.391 0.54-0.916-0.225-0.897 0.059-1.496 0.855-1.798 0.63-0.24 0.665-0.349 0.528-1.677-0.156-1.505 0.116-2.341 0.76-2.341 0.367 0 0.518-0.346 0.406-0.927-0.131-0.681 0.305-1.501 0.799-1.501 0.473 0 0.535-0.185 0.535-1.596 0-1.934 0.173-2.45 0.822-2.45 0.39 0 0.513-0.244 0.578-1.146 0.064-0.878 0.223-1.207 0.679-1.408 0.514-0.225 0.607-0.504 0.674-2.023 0.068-1.518 0.161-1.797 0.675-2.023 0.513-0.225 0.606-0.504 0.674-2.023 0.067-1.516 0.161-1.797 0.673-2.022 0.446-0.196 0.614-0.531 0.674-1.348 0.06-0.819 0.227-1.153 0.676-1.35 0.514-0.225 0.607-0.504 0.674-2.023 0.071-1.582 0.139-1.77 0.674-1.846 0.542-0.077 0.602-0.258 0.674-2.023 0.073-1.776 0.13-1.945 0.686-2.024 0.604-0.086 0.607-0.114 0.607-4.893v-4.807l-0.674-0.17c-0.594-0.149-0.675-0.313-0.675-1.377 0-1.036-0.078-1.209-0.548-1.209-0.301 0-0.623-0.213-0.716-0.472-0.171-0.478-2.212-2.495-2.525-2.495-0.094 0-0.308-0.303-0.477-0.674s-0.47-0.675-0.669-0.675-0.626-0.303-0.948-0.674l-0.586-0.674h-22.935l-0.847 0.809m-192.11 1.21c-0.102 0.408-0.424 0.734-0.824 0.834-0.561 0.141-0.669 0.348-0.738 1.421-0.069 1.067-0.172 1.268-0.688 1.341-0.525 0.075-0.607 0.248-0.607 1.276 0 1.045-0.082 1.211-0.674 1.359-0.638 0.16-0.674 0.271-0.674 2.023 0 1.753-0.037 1.863-0.675 2.023-0.59 0.148-0.674 0.316-0.674 1.349s-0.084 1.2-0.674 1.348c-0.576 0.145-0.675 0.324-0.675 1.225 0 0.871-0.12 1.111-0.691 1.371-0.619 0.282-0.687 0.458-0.651 1.68 0.059 2.006 0.054 2.023-0.702 2.367-0.544 0.248-0.668 0.463-0.567 0.989 0.177 0.928-0.045 1.378-0.827 1.675-0.541 0.206-0.642 0.392-0.531 0.974 0.186 0.974-0.025 1.422-0.812 1.721-0.599 0.228-0.657 0.388-0.604 1.666 0.083 2.015 0.066 2.072-0.712 2.368-0.568 0.216-0.671 0.391-0.539 0.916 0.224 0.892-0.059 1.496-0.839 1.792-0.554 0.211-0.632 0.374-0.489 1.025 0.169 0.767-0.228 1.459-0.98 1.71-0.194 0.065-0.342 0.745-0.372 1.71-0.062 2.041-0.03 1.94-0.663 2.141-0.374 0.119-0.54 0.408-0.54 0.941 0 1.12-0.259 1.622-0.838 1.622-0.443 0-0.51 0.21-0.51 1.596 0 1.934-0.174 2.45-0.823 2.45-0.39 0-0.513 0.244-0.578 1.146-0.063 0.877-0.223 1.208-0.677 1.407-0.447 0.196-0.614 0.531-0.675 1.349-0.06 0.825-0.226 1.152-0.686 1.354-0.591 0.259-0.607 0.373-0.607 4.354v4.087l0.674 0.169c0.371 0.093 0.674 0.349 0.674 0.569 0 0.61 56.775 0.605 57.009-5e-3 0.086-0.223 0.338-0.405 0.562-0.405 0.223 0 0.594-0.364 0.824-0.809 0.246-0.475 0.634-0.809 0.94-0.809 0.459 0 0.53-0.231 0.6-1.956 0.072-1.78 0.132-1.963 0.672-2.039 0.5-0.072 0.605-0.283 0.674-1.349 0.071-1.096 0.166-1.276 0.72-1.355 0.564-0.08 0.621-0.196 0.489-1.009-0.158-0.975 0.308-1.732 1.067-1.732 0.324 0 0.387-0.345 0.323-1.767-0.08-1.792 0.146-2.265 1.086-2.275 0.271-3e-3 0.322-0.244 0.195-0.922-0.183-0.975 0.309-1.78 1.087-1.78 0.293 0 0.376-0.263 0.318-1-0.068-0.869 0.022-1.051 0.688-1.376 0.737-0.36 0.764-0.439 0.674-2.033-0.084-1.503-0.036-1.684 0.509-1.923 1.053-0.462 1.045-1.928-0.011-2.081-0.348-0.051-0.629-0.344-0.726-0.757l-0.158-0.674-12.193-0.071c-10.886-0.062-12.193-0.025-12.193 0.35 0 0.231-0.343 0.617-0.763 0.858s-0.96 0.781-1.201 1.201-0.641 0.763-0.889 0.763c-0.361 0-0.418 0.168-0.283 0.841 0.152 0.76 0.014 0.994-1.438 2.428l-1.606 1.586h-2.552c-2.955 0-2.77 0.226-2.596-3.163 0.126-2.464 0.173-2.641 0.73-2.72 0.542-0.077 0.602-0.258 0.674-2.023 0.073-1.777 0.13-1.946 0.686-2.025 0.525-0.074 0.607-0.247 0.607-1.276 0-1.037 0.084-1.211 0.66-1.355 0.549-0.138 0.674-0.355 0.742-1.287 0.062-0.852 0.224-1.183 0.677-1.382 0.514-0.225 0.607-0.504 0.675-2.023 0.068-1.54 0.156-1.795 0.697-2.031 0.431-0.187 0.607-0.475 0.579-0.944-0.072-1.18 1e-3 -1.353 0.705-1.674 0.502-0.229 0.678-0.502 0.646-1.006-0.076-1.205-3e-3 -1.373 0.718-1.647 0.578-0.22 0.68-0.398 0.567-0.988-0.186-0.974 0.026-1.422 0.813-1.721 0.599-0.228 0.657-0.387 0.604-1.665-0.083-2.016-0.066-2.073 0.711-2.368 0.569-0.216 0.672-0.391 0.54-0.916-0.224-0.893 0.058-1.496 0.838-1.793 0.554-0.21 0.632-0.373 0.489-1.025-0.167-0.759 0.35-1.65 0.956-1.65 0.553 0 0.251-1.49-0.356-1.757-0.334-0.146-0.646-0.539-0.693-0.873l-0.086-0.607h-23.37l-0.169 0.671" fill="#fff" fill-rule="evenodd"/>
</svg>
