<svg viewBox="0 0 96 96" xmlns="http://www.w3.org/2000/svg" xmlns:xlink="http://www.w3.org/1999/xlink" id="Icons_MapCompass" overflow="hidden"><path d="M48 54C44.7 54 42 51.3 42 48 42 44.7 44.7 42 48 42 51.3 42 54 44.7 54 48 54 51.3 51.3 54 48 54ZM82 46.7 75.8 44.8 60.6 40 65.5 30.5 56.1 35.4 51.2 20.1 49.2 13.9 48 10 46.7 14 44.8 20.2 40.1 35.4 30.6 30.5 35.5 39.9 20.3 44.7 14 46.6 10 47.9 14 49.2 20.1 51.2 35.4 56 30.5 65.4 39.9 60.5 44.7 75.7 46.6 81.9 47.9 85.9 49.2 81.9 51.2 75.7 56.1 60.4 65.5 65.3 60.5 55.9 75.7 51.1 81.9 49.1 85.9 47.8 82 46.7Z" stroke="none" stroke-width="1" stroke-linecap="butt" fill="#FFFFFF" fill-opacity="1"/><path d="M74.9 55.6C73.9 59.1 72.2 62.4 69.9 65.3 68.6 67 67 68.5 65.4 69.9 62.5 72.2 59.2 73.9 55.6 74.9L55 77 53.6 81.5C60.2 80.4 66.3 77.4 71.2 72.8 71.8 72.2 72.4 71.6 73 71 77.5 66.1 80.5 60 81.6 53.5L77 55 74.9 55.6Z" stroke="none" stroke-width="1" stroke-linecap="butt" fill="#FFFFFF" fill-opacity="1"/><path d="M55.7 21.1C59.2 22.1 62.5 23.8 65.3 26.1 67 27.4 68.5 29 69.9 30.7 72.2 33.6 73.9 36.8 74.9 40.4L77 41 81.5 42.4C80.4 35.9 77.4 29.8 72.9 24.9 72.3 24.3 71.7 23.7 71.1 23.1 66.2 18.6 60.2 15.6 53.6 14.5L55 19 55.7 21.1Z" stroke="none" stroke-width="1" stroke-linecap="butt" fill="#FFFFFF" fill-opacity="1"/><path d="M21.1 40.2C22.1 36.7 23.8 33.4 26.1 30.5 27.4 28.8 29 27.3 30.7 25.9 33.6 23.6 36.8 22 40.3 21L41 19 42.4 14.5C35.9 15.6 29.8 18.5 24.9 23 24.3 23.6 23.7 24.2 23.1 24.8 18.6 29.7 15.5 35.8 14.4 42.3L18.9 40.9 21.1 40.2Z" stroke="none" stroke-width="1" stroke-linecap="butt" fill="#FFFFFF" fill-opacity="1"/><path d="M40.3 74.9C36.8 73.9 33.5 72.2 30.6 69.9 28.9 68.6 27.4 67 26.1 65.4 23.8 62.5 22.1 59.2 21.1 55.7L19 55 14.5 53.6C15.6 60.2 18.6 66.3 23.1 71.1 23.7 71.7 24.3 72.3 24.9 72.9 29.8 77.4 35.9 80.4 42.4 81.5L40.9 77 40.3 74.9Z" stroke="none" stroke-width="1" stroke-linecap="butt" fill="#FFFFFF" fill-opacity="1"/></svg>